<svg xmlns="http://www.w3.org/2000/svg" version="1.1" xmlns:xlink="http://www.w3.org/1999/xlink" xmlns:svgjs="http://svgjs.com/svgjs" width="1453" height="583" preserveAspectRatio="none" viewBox="0 0 1453 583"><g mask="url(&quot;#SvgjsMask1113&quot;)" fill="none"><rect width="1453" height="583" x="0" y="0" fill="rgba(254, 254, 255, 1)"></rect><path d="M75.857,164.69C108.732,164.71,141.079,151.467,158.045,123.308C175.531,94.287,174.143,58.222,157.932,28.47C140.948,-2.701,111.331,-28.832,75.857,-27.532C41.938,-26.289,19.799,4.311,3.577,34.126C-11.724,62.249,-21.665,95.198,-6.159,123.208C9.745,151.936,43.021,164.67,75.857,164.69" fill="rgba(245, 192, 192, 1)" class="triangle-float2"></path><path d="M131.867,276.309C187.525,281.143,249.339,264.166,275.68,214.898C301.112,167.331,274.487,111.575,243.576,67.372C217.793,30.502,176.751,12.335,131.867,9.242C79.226,5.614,16.261,4.193,-10.123,49.889C-36.507,95.585,-2.368,148.48,25.666,193.183C51.265,234.003,83.865,272.14,131.867,276.309" fill="rgba(245, 192, 192, 1)" class="triangle-float3"></path><path d="M67.073,148.561C99.193,148.026,132.603,141.906,150.612,115.305C170.794,85.494,174.829,46.416,157.639,14.785C139.721,-18.186,104.568,-39.911,67.073,-38.415C31.709,-37.004,5.632,-9.265,-11.783,21.546C-28.854,51.748,-39.731,88.697,-21.432,118.172C-3.798,146.575,33.646,149.118,67.073,148.561" fill="rgba(245, 192, 192, 1)" class="triangle-float3"></path><path d="M1462.34,244.866C1511.43,244.2,1567.761,243.493,1592.622,201.158C1617.666,158.512,1592.989,107.616,1568.002,64.937C1543.376,22.875,1511.08,-21.715,1462.34,-21.368C1413.966,-21.024,1384.256,25.01,1359.251,66.421C1332.963,109.957,1300.344,160.744,1325.784,204.781C1351.218,248.807,1411.5,245.556,1462.34,244.866" fill="rgba(245, 192, 192, 1)" class="triangle-float2"></path><path d="M1465.565,294.485C1519.151,293.282,1551.976,240.837,1575.982,192.914C1596.969,151.019,1604.937,102.799,1582.075,61.897C1558.688,20.057,1513.496,-4.173,1465.565,-4.629C1416.803,-5.092,1369.897,17.624,1345.154,59.645C1320.06,102.263,1323.644,154.065,1346.209,198.074C1371.219,246.851,1410.764,295.716,1465.565,294.485" fill="rgba(245, 192, 192, 1)" class="triangle-float2"></path><path d="M1369.076,95.96C1392.593,97.071,1416.069,86.989,1428.169,66.793C1440.581,46.078,1440.212,19.452,1427.045,-0.792C1414.877,-19.5,1391.393,-24.13,1369.076,-24.063C1346.911,-23.996,1322.904,-19.576,1311.708,-0.446C1300.43,18.824,1307.504,42.445,1318.922,61.633C1330.026,80.292,1347.387,94.935,1369.076,95.96" fill="rgba(245, 192, 192, 1)" class="triangle-float3"></path><path d="M101.584,670.641C145.933,672.238,196.212,673.722,221.166,637.025C248.382,597.002,240.823,543.483,216.511,501.632C192.319,459.989,149.733,430.171,101.584,431.18C54.927,432.157,16.681,465.109,-5.293,506.279C-25.926,544.935,-27.846,592.185,-3.959,628.92C18.144,662.912,61.064,669.182,101.584,670.641" fill="rgba(245, 192, 192, 1)" class="triangle-float1"></path><path d="M109.715,707.818C155.604,708.485,194.19,677.87,217.922,638.588C242.631,597.688,257.39,545.989,231.9,505.572C207.482,466.855,155.484,466.351,109.715,467.018C65.584,467.661,16.545,471.375,-6.457,509.043C-30.136,547.82,-16.106,596.295,6.82,635.522C29.49,674.311,64.792,707.165,109.715,707.818" fill="rgba(245, 192, 192, 1)" class="triangle-float1"></path><path d="M42.002,568.826C65.618,568.977,89.713,563.126,103.146,543.703C118.578,521.391,124.905,491.862,111.572,468.236C98.061,444.294,69.384,432.911,42.002,435.357C18.136,437.489,2.72,458.058,-8.923,479C-20.127,499.154,-29.174,522.87,-17.802,542.93C-6.319,563.184,18.719,568.677,42.002,568.826" fill="rgba(245, 192, 192, 1)" class="triangle-float3"></path><path d="M1453.363,713.174C1503.93,713.03,1557.732,701.994,1584.048,658.814C1611.226,614.219,1601.143,558.343,1575.423,512.891C1549.25,466.638,1506.508,427.889,1453.363,427.868C1400.188,427.846,1357.451,466.589,1331.131,512.793C1305.119,558.456,1294.012,614.7,1321.379,659.564C1347.883,703.013,1402.468,713.319,1453.363,713.174" fill="rgba(245, 192, 192, 1)" class="triangle-float3"></path><path d="M1425.617,648.049C1459.118,646.503,1490.522,631.8,1508.104,603.241C1526.603,573.193,1531.157,535.426,1513.902,504.646C1496.3,473.247,1461.588,457.427,1425.617,456.097C1386.832,454.663,1345.775,464.73,1325.254,497.672C1303.738,532.21,1306.208,577.67,1328.797,611.516C1349.321,642.267,1388.685,649.753,1425.617,648.049" fill="rgba(245, 192, 192, 1)" class="triangle-float2"></path><path d="M1413.349,626.675C1449.798,627.284,1493.173,631.523,1511.903,600.249C1530.878,568.566,1508.474,531.069,1489.629,499.309C1471.34,468.488,1449.099,436.686,1413.349,434.158C1373.803,431.362,1335.44,452.59,1315.781,487.018C1296.271,521.185,1297.803,564.798,1320.336,597.051C1340.309,625.64,1378.479,626.093,1413.349,626.675" fill="rgba(245, 192, 192, 1)" class="triangle-float2"></path></g><defs><mask id="SvgjsMask1113"><rect width="1453" height="583" fill="#ffffff"></rect></mask><style>
            @keyframes float1 {
                0%{transform: translate(0, 0)}
                50%{transform: translate(-10px, 0)}
                100%{transform: translate(0, 0)}
            }

            .triangle-float1 {
                animation: float1 5s infinite;
            }

            @keyframes float2 {
                0%{transform: translate(0, 0)}
                50%{transform: translate(-5px, -5px)}
                100%{transform: translate(0, 0)}
            }

            .triangle-float2 {
                animation: float2 4s infinite;
            }

            @keyframes float3 {
                0%{transform: translate(0, 0)}
                50%{transform: translate(0, -10px)}
                100%{transform: translate(0, 0)}
            }

            .triangle-float3 {
                animation: float3 6s infinite;
            }
        </style></defs></svg>