<svg xmlns="http://www.w3.org/2000/svg" version="1.1" xmlns:xlink="http://www.w3.org/1999/xlink" xmlns:svgjs="http://svgjs.com/svgjs" width="1440" height="560" preserveAspectRatio="none" viewBox="0 0 1440 560"><g mask="url(&quot;#SvgjsMask1012&quot;)" fill="none"><rect width="1440" height="560" x="0" y="0" fill="rgba(254, 254, 255, 1)"></rect><path d="M74.775,274.741C93.565,275.534,111.642,265.498,120.704,249.018C129.477,233.064,126.062,213.913,116.861,198.202C107.773,182.684,92.743,169.848,74.775,170.589C57.721,171.292,46.296,186.363,38.3,201.442C30.923,215.354,28.09,231.306,35.105,245.404C42.958,261.185,57.164,273.997,74.775,274.741" fill="rgba(245, 192, 192, 1)" class="triangle-float1"></path><path d="M404.247,521.203C438.408,521.269,477.012,519.071,494.546,489.753C512.375,459.943,498.458,423.33,480.603,393.535C463.379,364.793,437.745,339.881,404.247,339.071C369.517,338.232,339.019,359.85,321.219,389.683C302.923,420.347,295.486,459.212,314.548,489.407C332.698,518.157,370.247,521.138,404.247,521.203" fill="rgba(245, 192, 192, 1)" class="triangle-float1"></path><path d="M870.84,101.888C888.837,102.311,908.239,98.611,917.662,83.272C927.428,67.373,923.916,47.138,914.291,31.153C904.993,15.712,888.863,5.308,870.84,5.515C853.151,5.719,837.852,16.768,829.086,32.133C820.403,47.351,818.686,66.121,827.685,81.155C836.47,95.832,853.74,101.486,870.84,101.888" fill="rgba(245, 192, 192, 1)" class="triangle-float2"></path><path d="M729.337,186.384C769.161,185.32,796.124,150.412,815.499,115.603C834.189,82.024,845.892,42.894,828.186,8.786C809.223,-27.742,770.48,-51.446,729.337,-50.372C689.789,-49.339,658.197,-20.889,639.041,13.725C620.567,47.107,617.13,86.622,634.811,120.431C653.894,156.92,688.174,187.484,729.337,186.384" fill="rgba(245, 192, 192, 1)" class="triangle-float2"></path><path d="M640.738,569.874C660.683,569.983,678.312,556.883,687.301,539.078C695.497,522.843,690.406,504.508,681.835,488.467C672.577,471.139,660.357,452.953,640.738,451.932C619.818,450.843,601.268,465.236,591.497,483.766C582.345,501.122,585.311,521.539,595.051,538.572C604.873,555.748,620.952,569.765,640.738,569.874" fill="rgba(245, 192, 192, 1)" class="triangle-float2"></path></g><defs><mask id="SvgjsMask1012"><rect width="1440" height="560" fill="#ffffff"></rect></mask><style>
            @keyframes float1 {
                0%{transform: translate(0, 0)}
                50%{transform: translate(-10px, 0)}
                100%{transform: translate(0, 0)}
            }

            .triangle-float1 {
                animation: float1 5s infinite;
            }

            @keyframes float2 {
                0%{transform: translate(0, 0)}
                50%{transform: translate(-5px, -5px)}
                100%{transform: translate(0, 0)}
            }

            .triangle-float2 {
                animation: float2 4s infinite;
            }

            @keyframes float3 {
                0%{transform: translate(0, 0)}
                50%{transform: translate(0, -10px)}
                100%{transform: translate(0, 0)}
            }

            .triangle-float3 {
                animation: float3 6s infinite;
            }
        </style></defs></svg>